# xmcd
#
# Track frame offsets: 
#        150
#        10287
#        22330
#        34715
#        44060
#        56585
#        68035
#        78527
#        89190
#        100302
#        110220
#        123285
#        134655
#        147052
#        157455
#        167827
#        178950
#        190465
#        203195
#        217572
#        230760
#        243610
#        256010
#        267287
#        278607
#
# Disc length: 3849 seconds
#
# Revision: 0
# Processed by: cddbd v1.5.2PL0 Copyright (c) Steve Scherf et al.
# Submitted via: ExactAudioCopy v1.3
#
DISCID=860f0719
DTITLE=Lester Flatt and Mac Wiseman - Lester and Mac
DYEAR=1997
DGENRE=Bluegrass
TTITLE0=Your the Best of All the Leading Brands
TTITLE1=Homestead on the Farm
TTITLE2=You Love is Like a Flower
TTITLE3=Now That You Have Me
TTITLE4=The Bluebird Singing For Me
TTITLE5=Will You Be Loving Another Man
TTITLE6=Jimmy Brown the News Boy
TTITLE7=Sweetheart You Done Me Wrong
TTITLE8=I'll Never Love Another
TTITLE9=Salty Dog Blues
TTITLE10=Just a Strand from a Yellow Curl
TTITLE11=How Lonely Can You Get
TTITLE12=I'm Waiting to Hear You Call Me Darling
TTITLE13=On the Southbound
TTITLE14=Are You Coming Back to Me
TTITLE15=You Can't Trust a Friend Anymore
TTITLE16=Me and Your Memory
TTITLE17=When You Are Lonely
TTITLE18=Over the Hills to the Poor House
TTITLE19='Tis Sweet To Be Remembered
TTITLE20=When my Blue Moon Turns to Gold
TTITLE21=I'll Go Stepping Too
TTITLE22=The Girl I Love Don't Pay Me No Mind
TTITLE23=Blueridge Cabin Home
TTITLE24=Waiting for the Boys to Come Home
EXTD=
EXTT0=
EXTT1=
EXTT2=
EXTT3=
EXTT4=
EXTT5=
EXTT6=
EXTT7=
EXTT8=
EXTT9=
EXTT10=
EXTT11=
EXTT12=
EXTT13=
EXTT14=
EXTT15=
EXTT16=
EXTT17=
EXTT18=
EXTT19=
EXTT20=
EXTT21=
EXTT22=
EXTT23=
EXTT24=
PLAYORDER=
